<svg xmlns="http://www.w3.org/2000/svg" viewBox="0 0 95 95" class="svg-seagull">
  <title>W. W. Norton &amp; Company</title>
  <path transform="translate(0 32.5)" fill="#2e445c" d="M28.06 22.47c.3-2 10.15-2.48 10.71-2.48 1.63 0 3.89-.13 1.81-.74a9 9 0 0 1-4.51-3.78 6.24 6.24 0 0 1-3.68-3c-2.21-.27-5.34-1.74-6.14-2.75A59.6 59.6 0 0 1 8 5.7C5.83 4.79-.64.44.05.21c2.11-.71 7.11.66 9.42.9 5.12.55 10.28.46 15.44.62h1.92c2.48-.07 5.37-.13 7.17 1.46 2.43 2.23 11.64 14.11 14 12.74.51-.31-.5-.77-1.66-1.13a.31.31 0 0 1 0-.59c5.11-1.18 8 1.88 14.4 2.74 5.28.7 5.89 3.61 5 6.53-.62 2.1.64 3.3 0 4.76-.34.76-.8.11-.88-.11-1.22-3.5-2.84-7.2-9.38-5a20.92 20.92 0 0 1-6.92 1.61 19.76 19.76 0 0 1-4.06-.34 12.6 12.6 0 0 0-4.66-.2c-1.6.3-2.34 4.05-4.45 5.67A.68.68 0 0 1 35 30c-1.79 0-7.22-3.31-6.94-7.53zm23.54-9.15c3.14-2.93 6.59-7.25 9.4-10.13 1.56-1.58 4.58-1.53 7.14-1.48h1.91c5.15-.16 10.32-.07 15.44-.61C87.83.86 92.84-.51 95 .2c.69.24-5.78 4.59-8 5.5a59.59 59.59 0 0 1-18.21 4c-.31.65-3.64 2.5-6.14 2.75 0 0-1.42 2.56-3.66 2.95a.68.68 0 0 1-.2 0c-1.29.05-4.56-1.4-7.19-2.08z"></path>
</svg>
